<?xml version="1.0" encoding="iso-8859-1"?>
<!-- Uploaded to: SVG Repo, www.svgrepo.com, Generator: SVG Repo Mixer Tools -->
<svg fill="#000000" version="1.1" id="Layer_1" xmlns="http://www.w3.org/2000/svg" xmlns:xlink="http://www.w3.org/1999/xlink" 
	 viewBox="0 0 512 512" xml:space="preserve">
<g>
	<g>
		<polygon points="95.28,99.658 95.28,509.048 110.986,509.048 110.986,115.363 401.014,115.363 401.014,509.048 416.72,509.048 
			416.72,99.658 		"/>
	</g>
</g>
<g>
	<g>
		<path d="M168.272,2.952v88.023h176.412V2.952H168.272z M248.625,75.269h-64.647V18.657h64.647V75.269z M328.978,75.269h-64.647
			V18.657h64.647V75.269z"/>
	</g>
</g>
<g>
	<g>
		<polygon points="216.302,31.84 194.678,53.464 205.784,64.569 216.302,54.051 226.819,64.569 237.925,53.464 		"/>
	</g>
</g>
<g>
	<g>
		<polygon points="307.173,29.358 296.654,39.875 286.137,29.358 275.031,40.463 296.654,62.086 318.278,40.463 		"/>
	</g>
</g>
<g>
	<g>
		<polygon points="71.198,75.576 71.198,509.048 86.904,509.048 86.904,91.282 160.196,91.282 160.196,75.576 		"/>
	</g>
</g>
<g>
	<g>
		<polygon points="352.851,75.576 352.851,91.282 425.096,91.282 425.096,509.048 440.802,509.048 440.802,75.576 		"/>
	</g>
</g>
<g>
	<g>
		<rect x="248.147" y="123.739" width="15.706" height="376.932"/>
	</g>
</g>
<g>
	<g>
		<rect x="473.26" y="269.276" width="15.706" height="15.706"/>
	</g>
</g>
<g>
	<g>
		<rect x="473.26" y="293.358" width="15.706" height="15.706"/>
	</g>
</g>
<g>
	<g>
		<rect x="24.082" y="269.276" width="15.706" height="15.706"/>
	</g>
</g>
<g>
	<g>
		<rect x="24.082" y="293.358" width="15.706" height="15.706"/>
	</g>
</g>
<g>
	<g>
		<path d="M449.178,245.196V332.1H512v-86.904H449.178z M496.294,316.394h-31.411v-55.493h31.411V316.394z"/>
	</g>
</g>
<g>
	<g>
		<path d="M0,245.196V332.1h62.822v-86.904H0z M47.117,316.394H15.706v-55.493h31.411V316.394z"/>
	</g>
</g>
<g>
	<g>
		<polygon points="126.691,131.069 126.691,251.478 142.397,251.478 142.397,146.774 160.196,146.774 160.196,131.069 		"/>
	</g>
</g>
<g>
	<g>
		<rect x="167.526" y="131.068" width="17.8" height="15.706"/>
	</g>
</g>
<g>
	<g>
		<polygon points="280.605,131.069 280.605,251.478 296.311,251.478 296.311,146.774 313.063,146.774 313.063,131.069 		"/>
	</g>
</g>
<g>
	<g>
		<rect x="321.44" y="131.068" width="15.706" height="15.706"/>
	</g>
</g>
</svg>